<?xml version="1.0" standalone="no"?>
<svg xmlns="http://www.w3.org/2000/svg" version="1.1" width="990" height="990">
	<!-- Created with https://api.qrserver.com (QR Code API, see goQR.me/api for information) -->
	<title>QR Code</title>
	<desc>https://avaliacaoinstitucional-dev.github.io/GUIA_ESTUDANTE/</desc>
	<rect style="fill:rgb(255, 255, 255);fill-opacity:1" x="0" y="0" width="990" height="990" />
	<g id="elements">
		<path style="fill:rgb(0, 0, 0)" d="M 0,0 l 30,0 0,30 -30,0 z M 30,0 l 30,0 0,30 -30,0 z M 60,0 l 30,0 0,30 -30,0 z M 90,0 l 30,0 0,30 -30,0 z M 120,0 l 30,0 0,30 -30,0 z M 150,0 l 30,0 0,30 -30,0 z M 180,0 l 30,0 0,30 -30,0 z M 300,0 l 30,0 0,30 -30,0 z M 360,0 l 30,0 0,30 -30,0 z M 390,0 l 30,0 0,30 -30,0 z M 450,0 l 30,0 0,30 -30,0 z M 510,0 l 30,0 0,30 -30,0 z M 540,0 l 30,0 0,30 -30,0 z M 570,0 l 30,0 0,30 -30,0 z M 600,0 l 30,0 0,30 -30,0 z M 690,0 l 30,0 0,30 -30,0 z M 780,0 l 30,0 0,30 -30,0 z M 810,0 l 30,0 0,30 -30,0 z M 840,0 l 30,0 0,30 -30,0 z M 870,0 l 30,0 0,30 -30,0 z M 900,0 l 30,0 0,30 -30,0 z M 930,0 l 30,0 0,30 -30,0 z M 960,0 l 30,0 0,30 -30,0 z M 0,30 l 30,0 0,30 -30,0 z M 180,30 l 30,0 0,30 -30,0 z M 240,30 l 30,0 0,30 -30,0 z M 300,30 l 30,0 0,30 -30,0 z M 390,30 l 30,0 0,30 -30,0 z M 420,30 l 30,0 0,30 -30,0 z M 450,30 l 30,0 0,30 -30,0 z M 510,30 l 30,0 0,30 -30,0 z M 600,30 l 30,0 0,30 -30,0 z M 660,30 l 30,0 0,30 -30,0 z M 780,30 l 30,0 0,30 -30,0 z M 960,30 l 30,0 0,30 -30,0 z M 0,60 l 30,0 0,30 -30,0 z M 60,60 l 30,0 0,30 -30,0 z M 90,60 l 30,0 0,30 -30,0 z M 120,60 l 30,0 0,30 -30,0 z M 180,60 l 30,0 0,30 -30,0 z M 360,60 l 30,0 0,30 -30,0 z M 390,60 l 30,0 0,30 -30,0 z M 450,60 l 30,0 0,30 -30,0 z M 630,60 l 30,0 0,30 -30,0 z M 690,60 l 30,0 0,30 -30,0 z M 780,60 l 30,0 0,30 -30,0 z M 840,60 l 30,0 0,30 -30,0 z M 870,60 l 30,0 0,30 -30,0 z M 900,60 l 30,0 0,30 -30,0 z M 960,60 l 30,0 0,30 -30,0 z M 0,90 l 30,0 0,30 -30,0 z M 60,90 l 30,0 0,30 -30,0 z M 90,90 l 30,0 0,30 -30,0 z M 120,90 l 30,0 0,30 -30,0 z M 180,90 l 30,0 0,30 -30,0 z M 240,90 l 30,0 0,30 -30,0 z M 270,90 l 30,0 0,30 -30,0 z M 300,90 l 30,0 0,30 -30,0 z M 360,90 l 30,0 0,30 -30,0 z M 420,90 l 30,0 0,30 -30,0 z M 450,90 l 30,0 0,30 -30,0 z M 480,90 l 30,0 0,30 -30,0 z M 510,90 l 30,0 0,30 -30,0 z M 540,90 l 30,0 0,30 -30,0 z M 570,90 l 30,0 0,30 -30,0 z M 660,90 l 30,0 0,30 -30,0 z M 690,90 l 30,0 0,30 -30,0 z M 720,90 l 30,0 0,30 -30,0 z M 780,90 l 30,0 0,30 -30,0 z M 840,90 l 30,0 0,30 -30,0 z M 870,90 l 30,0 0,30 -30,0 z M 900,90 l 30,0 0,30 -30,0 z M 960,90 l 30,0 0,30 -30,0 z M 0,120 l 30,0 0,30 -30,0 z M 60,120 l 30,0 0,30 -30,0 z M 90,120 l 30,0 0,30 -30,0 z M 120,120 l 30,0 0,30 -30,0 z M 180,120 l 30,0 0,30 -30,0 z M 270,120 l 30,0 0,30 -30,0 z M 450,120 l 30,0 0,30 -30,0 z M 510,120 l 30,0 0,30 -30,0 z M 540,120 l 30,0 0,30 -30,0 z M 570,120 l 30,0 0,30 -30,0 z M 600,120 l 30,0 0,30 -30,0 z M 630,120 l 30,0 0,30 -30,0 z M 690,120 l 30,0 0,30 -30,0 z M 780,120 l 30,0 0,30 -30,0 z M 840,120 l 30,0 0,30 -30,0 z M 870,120 l 30,0 0,30 -30,0 z M 900,120 l 30,0 0,30 -30,0 z M 960,120 l 30,0 0,30 -30,0 z M 0,150 l 30,0 0,30 -30,0 z M 180,150 l 30,0 0,30 -30,0 z M 240,150 l 30,0 0,30 -30,0 z M 270,150 l 30,0 0,30 -30,0 z M 330,150 l 30,0 0,30 -30,0 z M 360,150 l 30,0 0,30 -30,0 z M 450,150 l 30,0 0,30 -30,0 z M 510,150 l 30,0 0,30 -30,0 z M 630,150 l 30,0 0,30 -30,0 z M 780,150 l 30,0 0,30 -30,0 z M 960,150 l 30,0 0,30 -30,0 z M 0,180 l 30,0 0,30 -30,0 z M 30,180 l 30,0 0,30 -30,0 z M 60,180 l 30,0 0,30 -30,0 z M 90,180 l 30,0 0,30 -30,0 z M 120,180 l 30,0 0,30 -30,0 z M 150,180 l 30,0 0,30 -30,0 z M 180,180 l 30,0 0,30 -30,0 z M 240,180 l 30,0 0,30 -30,0 z M 300,180 l 30,0 0,30 -30,0 z M 360,180 l 30,0 0,30 -30,0 z M 420,180 l 30,0 0,30 -30,0 z M 480,180 l 30,0 0,30 -30,0 z M 540,180 l 30,0 0,30 -30,0 z M 600,180 l 30,0 0,30 -30,0 z M 660,180 l 30,0 0,30 -30,0 z M 720,180 l 30,0 0,30 -30,0 z M 780,180 l 30,0 0,30 -30,0 z M 810,180 l 30,0 0,30 -30,0 z M 840,180 l 30,0 0,30 -30,0 z M 870,180 l 30,0 0,30 -30,0 z M 900,180 l 30,0 0,30 -30,0 z M 930,180 l 30,0 0,30 -30,0 z M 960,180 l 30,0 0,30 -30,0 z M 270,210 l 30,0 0,30 -30,0 z M 300,210 l 30,0 0,30 -30,0 z M 330,210 l 30,0 0,30 -30,0 z M 420,210 l 30,0 0,30 -30,0 z M 570,210 l 30,0 0,30 -30,0 z M 600,210 l 30,0 0,30 -30,0 z M 630,210 l 30,0 0,30 -30,0 z M 660,210 l 30,0 0,30 -30,0 z M 720,210 l 30,0 0,30 -30,0 z M 0,240 l 30,0 0,30 -30,0 z M 30,240 l 30,0 0,30 -30,0 z M 60,240 l 30,0 0,30 -30,0 z M 90,240 l 30,0 0,30 -30,0 z M 120,240 l 30,0 0,30 -30,0 z M 180,240 l 30,0 0,30 -30,0 z M 210,240 l 30,0 0,30 -30,0 z M 240,240 l 30,0 0,30 -30,0 z M 270,240 l 30,0 0,30 -30,0 z M 330,240 l 30,0 0,30 -30,0 z M 570,240 l 30,0 0,30 -30,0 z M 660,240 l 30,0 0,30 -30,0 z M 690,240 l 30,0 0,30 -30,0 z M 720,240 l 30,0 0,30 -30,0 z M 750,240 l 30,0 0,30 -30,0 z M 810,240 l 30,0 0,30 -30,0 z M 870,240 l 30,0 0,30 -30,0 z M 930,240 l 30,0 0,30 -30,0 z M 30,270 l 30,0 0,30 -30,0 z M 60,270 l 30,0 0,30 -30,0 z M 210,270 l 30,0 0,30 -30,0 z M 240,270 l 30,0 0,30 -30,0 z M 300,270 l 30,0 0,30 -30,0 z M 360,270 l 30,0 0,30 -30,0 z M 390,270 l 30,0 0,30 -30,0 z M 420,270 l 30,0 0,30 -30,0 z M 540,270 l 30,0 0,30 -30,0 z M 570,270 l 30,0 0,30 -30,0 z M 690,270 l 30,0 0,30 -30,0 z M 780,270 l 30,0 0,30 -30,0 z M 900,270 l 30,0 0,30 -30,0 z M 930,270 l 30,0 0,30 -30,0 z M 960,270 l 30,0 0,30 -30,0 z M 90,300 l 30,0 0,30 -30,0 z M 150,300 l 30,0 0,30 -30,0 z M 180,300 l 30,0 0,30 -30,0 z M 300,300 l 30,0 0,30 -30,0 z M 390,300 l 30,0 0,30 -30,0 z M 420,300 l 30,0 0,30 -30,0 z M 450,300 l 30,0 0,30 -30,0 z M 510,300 l 30,0 0,30 -30,0 z M 630,300 l 30,0 0,30 -30,0 z M 660,300 l 30,0 0,30 -30,0 z M 840,300 l 30,0 0,30 -30,0 z M 870,300 l 30,0 0,30 -30,0 z M 930,300 l 30,0 0,30 -30,0 z M 60,330 l 30,0 0,30 -30,0 z M 90,330 l 30,0 0,30 -30,0 z M 120,330 l 30,0 0,30 -30,0 z M 240,330 l 30,0 0,30 -30,0 z M 360,330 l 30,0 0,30 -30,0 z M 390,330 l 30,0 0,30 -30,0 z M 450,330 l 30,0 0,30 -30,0 z M 480,330 l 30,0 0,30 -30,0 z M 570,330 l 30,0 0,30 -30,0 z M 630,330 l 30,0 0,30 -30,0 z M 690,330 l 30,0 0,30 -30,0 z M 720,330 l 30,0 0,30 -30,0 z M 750,330 l 30,0 0,30 -30,0 z M 810,330 l 30,0 0,30 -30,0 z M 900,330 l 30,0 0,30 -30,0 z M 0,360 l 30,0 0,30 -30,0 z M 30,360 l 30,0 0,30 -30,0 z M 90,360 l 30,0 0,30 -30,0 z M 120,360 l 30,0 0,30 -30,0 z M 150,360 l 30,0 0,30 -30,0 z M 180,360 l 30,0 0,30 -30,0 z M 240,360 l 30,0 0,30 -30,0 z M 270,360 l 30,0 0,30 -30,0 z M 300,360 l 30,0 0,30 -30,0 z M 360,360 l 30,0 0,30 -30,0 z M 420,360 l 30,0 0,30 -30,0 z M 450,360 l 30,0 0,30 -30,0 z M 480,360 l 30,0 0,30 -30,0 z M 720,360 l 30,0 0,30 -30,0 z M 750,360 l 30,0 0,30 -30,0 z M 810,360 l 30,0 0,30 -30,0 z M 840,360 l 30,0 0,30 -30,0 z M 870,360 l 30,0 0,30 -30,0 z M 0,390 l 30,0 0,30 -30,0 z M 60,390 l 30,0 0,30 -30,0 z M 90,390 l 30,0 0,30 -30,0 z M 120,390 l 30,0 0,30 -30,0 z M 210,390 l 30,0 0,30 -30,0 z M 240,390 l 30,0 0,30 -30,0 z M 450,390 l 30,0 0,30 -30,0 z M 570,390 l 30,0 0,30 -30,0 z M 600,390 l 30,0 0,30 -30,0 z M 690,390 l 30,0 0,30 -30,0 z M 780,390 l 30,0 0,30 -30,0 z M 930,390 l 30,0 0,30 -30,0 z M 960,390 l 30,0 0,30 -30,0 z M 0,420 l 30,0 0,30 -30,0 z M 30,420 l 30,0 0,30 -30,0 z M 60,420 l 30,0 0,30 -30,0 z M 120,420 l 30,0 0,30 -30,0 z M 150,420 l 30,0 0,30 -30,0 z M 180,420 l 30,0 0,30 -30,0 z M 240,420 l 30,0 0,30 -30,0 z M 270,420 l 30,0 0,30 -30,0 z M 330,420 l 30,0 0,30 -30,0 z M 360,420 l 30,0 0,30 -30,0 z M 450,420 l 30,0 0,30 -30,0 z M 600,420 l 30,0 0,30 -30,0 z M 630,420 l 30,0 0,30 -30,0 z M 660,420 l 30,0 0,30 -30,0 z M 750,420 l 30,0 0,30 -30,0 z M 780,420 l 30,0 0,30 -30,0 z M 930,420 l 30,0 0,30 -30,0 z M 0,450 l 30,0 0,30 -30,0 z M 90,450 l 30,0 0,30 -30,0 z M 120,450 l 30,0 0,30 -30,0 z M 210,450 l 30,0 0,30 -30,0 z M 240,450 l 30,0 0,30 -30,0 z M 300,450 l 30,0 0,30 -30,0 z M 330,450 l 30,0 0,30 -30,0 z M 420,450 l 30,0 0,30 -30,0 z M 480,450 l 30,0 0,30 -30,0 z M 600,450 l 30,0 0,30 -30,0 z M 630,450 l 30,0 0,30 -30,0 z M 660,450 l 30,0 0,30 -30,0 z M 750,450 l 30,0 0,30 -30,0 z M 780,450 l 30,0 0,30 -30,0 z M 810,450 l 30,0 0,30 -30,0 z M 900,450 l 30,0 0,30 -30,0 z M 30,480 l 30,0 0,30 -30,0 z M 60,480 l 30,0 0,30 -30,0 z M 120,480 l 30,0 0,30 -30,0 z M 180,480 l 30,0 0,30 -30,0 z M 210,480 l 30,0 0,30 -30,0 z M 270,480 l 30,0 0,30 -30,0 z M 300,480 l 30,0 0,30 -30,0 z M 330,480 l 30,0 0,30 -30,0 z M 600,480 l 30,0 0,30 -30,0 z M 660,480 l 30,0 0,30 -30,0 z M 750,480 l 30,0 0,30 -30,0 z M 810,480 l 30,0 0,30 -30,0 z M 840,480 l 30,0 0,30 -30,0 z M 930,480 l 30,0 0,30 -30,0 z M 0,510 l 30,0 0,30 -30,0 z M 30,510 l 30,0 0,30 -30,0 z M 60,510 l 30,0 0,30 -30,0 z M 240,510 l 30,0 0,30 -30,0 z M 270,510 l 30,0 0,30 -30,0 z M 300,510 l 30,0 0,30 -30,0 z M 360,510 l 30,0 0,30 -30,0 z M 390,510 l 30,0 0,30 -30,0 z M 420,510 l 30,0 0,30 -30,0 z M 450,510 l 30,0 0,30 -30,0 z M 480,510 l 30,0 0,30 -30,0 z M 510,510 l 30,0 0,30 -30,0 z M 540,510 l 30,0 0,30 -30,0 z M 570,510 l 30,0 0,30 -30,0 z M 600,510 l 30,0 0,30 -30,0 z M 630,510 l 30,0 0,30 -30,0 z M 690,510 l 30,0 0,30 -30,0 z M 780,510 l 30,0 0,30 -30,0 z M 870,510 l 30,0 0,30 -30,0 z M 930,510 l 30,0 0,30 -30,0 z M 960,510 l 30,0 0,30 -30,0 z M 30,540 l 30,0 0,30 -30,0 z M 60,540 l 30,0 0,30 -30,0 z M 120,540 l 30,0 0,30 -30,0 z M 150,540 l 30,0 0,30 -30,0 z M 180,540 l 30,0 0,30 -30,0 z M 270,540 l 30,0 0,30 -30,0 z M 390,540 l 30,0 0,30 -30,0 z M 420,540 l 30,0 0,30 -30,0 z M 450,540 l 30,0 0,30 -30,0 z M 480,540 l 30,0 0,30 -30,0 z M 540,540 l 30,0 0,30 -30,0 z M 630,540 l 30,0 0,30 -30,0 z M 660,540 l 30,0 0,30 -30,0 z M 720,540 l 30,0 0,30 -30,0 z M 780,540 l 30,0 0,30 -30,0 z M 870,540 l 30,0 0,30 -30,0 z M 930,540 l 30,0 0,30 -30,0 z M 0,570 l 30,0 0,30 -30,0 z M 30,570 l 30,0 0,30 -30,0 z M 60,570 l 30,0 0,30 -30,0 z M 150,570 l 30,0 0,30 -30,0 z M 240,570 l 30,0 0,30 -30,0 z M 360,570 l 30,0 0,30 -30,0 z M 390,570 l 30,0 0,30 -30,0 z M 450,570 l 30,0 0,30 -30,0 z M 630,570 l 30,0 0,30 -30,0 z M 750,570 l 30,0 0,30 -30,0 z M 810,570 l 30,0 0,30 -30,0 z M 840,570 l 30,0 0,30 -30,0 z M 900,570 l 30,0 0,30 -30,0 z M 0,600 l 30,0 0,30 -30,0 z M 30,600 l 30,0 0,30 -30,0 z M 60,600 l 30,0 0,30 -30,0 z M 180,600 l 30,0 0,30 -30,0 z M 240,600 l 30,0 0,30 -30,0 z M 300,600 l 30,0 0,30 -30,0 z M 360,600 l 30,0 0,30 -30,0 z M 420,600 l 30,0 0,30 -30,0 z M 570,600 l 30,0 0,30 -30,0 z M 660,600 l 30,0 0,30 -30,0 z M 750,600 l 30,0 0,30 -30,0 z M 810,600 l 30,0 0,30 -30,0 z M 840,600 l 30,0 0,30 -30,0 z M 930,600 l 30,0 0,30 -30,0 z M 0,630 l 30,0 0,30 -30,0 z M 30,630 l 30,0 0,30 -30,0 z M 60,630 l 30,0 0,30 -30,0 z M 150,630 l 30,0 0,30 -30,0 z M 480,630 l 30,0 0,30 -30,0 z M 540,630 l 30,0 0,30 -30,0 z M 570,630 l 30,0 0,30 -30,0 z M 600,630 l 30,0 0,30 -30,0 z M 630,630 l 30,0 0,30 -30,0 z M 690,630 l 30,0 0,30 -30,0 z M 780,630 l 30,0 0,30 -30,0 z M 870,630 l 30,0 0,30 -30,0 z M 930,630 l 30,0 0,30 -30,0 z M 960,630 l 30,0 0,30 -30,0 z M 0,660 l 30,0 0,30 -30,0 z M 90,660 l 30,0 0,30 -30,0 z M 120,660 l 30,0 0,30 -30,0 z M 180,660 l 30,0 0,30 -30,0 z M 210,660 l 30,0 0,30 -30,0 z M 240,660 l 30,0 0,30 -30,0 z M 270,660 l 30,0 0,30 -30,0 z M 300,660 l 30,0 0,30 -30,0 z M 330,660 l 30,0 0,30 -30,0 z M 360,660 l 30,0 0,30 -30,0 z M 540,660 l 30,0 0,30 -30,0 z M 630,660 l 30,0 0,30 -30,0 z M 660,660 l 30,0 0,30 -30,0 z M 750,660 l 30,0 0,30 -30,0 z M 780,660 l 30,0 0,30 -30,0 z M 810,660 l 30,0 0,30 -30,0 z M 870,660 l 30,0 0,30 -30,0 z M 930,660 l 30,0 0,30 -30,0 z M 0,690 l 30,0 0,30 -30,0 z M 60,690 l 30,0 0,30 -30,0 z M 90,690 l 30,0 0,30 -30,0 z M 150,690 l 30,0 0,30 -30,0 z M 330,690 l 30,0 0,30 -30,0 z M 420,690 l 30,0 0,30 -30,0 z M 480,690 l 30,0 0,30 -30,0 z M 600,690 l 30,0 0,30 -30,0 z M 630,690 l 30,0 0,30 -30,0 z M 660,690 l 30,0 0,30 -30,0 z M 720,690 l 30,0 0,30 -30,0 z M 780,690 l 30,0 0,30 -30,0 z M 840,690 l 30,0 0,30 -30,0 z M 870,690 l 30,0 0,30 -30,0 z M 900,690 l 30,0 0,30 -30,0 z M 0,720 l 30,0 0,30 -30,0 z M 60,720 l 30,0 0,30 -30,0 z M 120,720 l 30,0 0,30 -30,0 z M 180,720 l 30,0 0,30 -30,0 z M 240,720 l 30,0 0,30 -30,0 z M 330,720 l 30,0 0,30 -30,0 z M 450,720 l 30,0 0,30 -30,0 z M 600,720 l 30,0 0,30 -30,0 z M 660,720 l 30,0 0,30 -30,0 z M 690,720 l 30,0 0,30 -30,0 z M 720,720 l 30,0 0,30 -30,0 z M 750,720 l 30,0 0,30 -30,0 z M 780,720 l 30,0 0,30 -30,0 z M 810,720 l 30,0 0,30 -30,0 z M 840,720 l 30,0 0,30 -30,0 z M 960,720 l 30,0 0,30 -30,0 z M 240,750 l 30,0 0,30 -30,0 z M 300,750 l 30,0 0,30 -30,0 z M 360,750 l 30,0 0,30 -30,0 z M 390,750 l 30,0 0,30 -30,0 z M 420,750 l 30,0 0,30 -30,0 z M 510,750 l 30,0 0,30 -30,0 z M 570,750 l 30,0 0,30 -30,0 z M 600,750 l 30,0 0,30 -30,0 z M 630,750 l 30,0 0,30 -30,0 z M 660,750 l 30,0 0,30 -30,0 z M 720,750 l 30,0 0,30 -30,0 z M 840,750 l 30,0 0,30 -30,0 z M 900,750 l 30,0 0,30 -30,0 z M 960,750 l 30,0 0,30 -30,0 z M 0,780 l 30,0 0,30 -30,0 z M 30,780 l 30,0 0,30 -30,0 z M 60,780 l 30,0 0,30 -30,0 z M 90,780 l 30,0 0,30 -30,0 z M 120,780 l 30,0 0,30 -30,0 z M 150,780 l 30,0 0,30 -30,0 z M 180,780 l 30,0 0,30 -30,0 z M 240,780 l 30,0 0,30 -30,0 z M 390,780 l 30,0 0,30 -30,0 z M 420,780 l 30,0 0,30 -30,0 z M 510,780 l 30,0 0,30 -30,0 z M 600,780 l 30,0 0,30 -30,0 z M 660,780 l 30,0 0,30 -30,0 z M 690,780 l 30,0 0,30 -30,0 z M 720,780 l 30,0 0,30 -30,0 z M 780,780 l 30,0 0,30 -30,0 z M 840,780 l 30,0 0,30 -30,0 z M 870,780 l 30,0 0,30 -30,0 z M 900,780 l 30,0 0,30 -30,0 z M 930,780 l 30,0 0,30 -30,0 z M 0,810 l 30,0 0,30 -30,0 z M 180,810 l 30,0 0,30 -30,0 z M 300,810 l 30,0 0,30 -30,0 z M 360,810 l 30,0 0,30 -30,0 z M 390,810 l 30,0 0,30 -30,0 z M 630,810 l 30,0 0,30 -30,0 z M 690,810 l 30,0 0,30 -30,0 z M 720,810 l 30,0 0,30 -30,0 z M 840,810 l 30,0 0,30 -30,0 z M 870,810 l 30,0 0,30 -30,0 z M 900,810 l 30,0 0,30 -30,0 z M 960,810 l 30,0 0,30 -30,0 z M 0,840 l 30,0 0,30 -30,0 z M 60,840 l 30,0 0,30 -30,0 z M 90,840 l 30,0 0,30 -30,0 z M 120,840 l 30,0 0,30 -30,0 z M 180,840 l 30,0 0,30 -30,0 z M 240,840 l 30,0 0,30 -30,0 z M 360,840 l 30,0 0,30 -30,0 z M 420,840 l 30,0 0,30 -30,0 z M 450,840 l 30,0 0,30 -30,0 z M 480,840 l 30,0 0,30 -30,0 z M 510,840 l 30,0 0,30 -30,0 z M 540,840 l 30,0 0,30 -30,0 z M 570,840 l 30,0 0,30 -30,0 z M 720,840 l 30,0 0,30 -30,0 z M 750,840 l 30,0 0,30 -30,0 z M 780,840 l 30,0 0,30 -30,0 z M 810,840 l 30,0 0,30 -30,0 z M 840,840 l 30,0 0,30 -30,0 z M 870,840 l 30,0 0,30 -30,0 z M 0,870 l 30,0 0,30 -30,0 z M 60,870 l 30,0 0,30 -30,0 z M 90,870 l 30,0 0,30 -30,0 z M 120,870 l 30,0 0,30 -30,0 z M 180,870 l 30,0 0,30 -30,0 z M 240,870 l 30,0 0,30 -30,0 z M 270,870 l 30,0 0,30 -30,0 z M 300,870 l 30,0 0,30 -30,0 z M 450,870 l 30,0 0,30 -30,0 z M 540,870 l 30,0 0,30 -30,0 z M 570,870 l 30,0 0,30 -30,0 z M 600,870 l 30,0 0,30 -30,0 z M 720,870 l 30,0 0,30 -30,0 z M 750,870 l 30,0 0,30 -30,0 z M 810,870 l 30,0 0,30 -30,0 z M 840,870 l 30,0 0,30 -30,0 z M 870,870 l 30,0 0,30 -30,0 z M 900,870 l 30,0 0,30 -30,0 z M 930,870 l 30,0 0,30 -30,0 z M 960,870 l 30,0 0,30 -30,0 z M 0,900 l 30,0 0,30 -30,0 z M 60,900 l 30,0 0,30 -30,0 z M 90,900 l 30,0 0,30 -30,0 z M 120,900 l 30,0 0,30 -30,0 z M 180,900 l 30,0 0,30 -30,0 z M 240,900 l 30,0 0,30 -30,0 z M 330,900 l 30,0 0,30 -30,0 z M 360,900 l 30,0 0,30 -30,0 z M 540,900 l 30,0 0,30 -30,0 z M 600,900 l 30,0 0,30 -30,0 z M 660,900 l 30,0 0,30 -30,0 z M 690,900 l 30,0 0,30 -30,0 z M 720,900 l 30,0 0,30 -30,0 z M 750,900 l 30,0 0,30 -30,0 z M 780,900 l 30,0 0,30 -30,0 z M 0,930 l 30,0 0,30 -30,0 z M 180,930 l 30,0 0,30 -30,0 z M 240,930 l 30,0 0,30 -30,0 z M 330,930 l 30,0 0,30 -30,0 z M 420,930 l 30,0 0,30 -30,0 z M 540,930 l 30,0 0,30 -30,0 z M 570,930 l 30,0 0,30 -30,0 z M 600,930 l 30,0 0,30 -30,0 z M 630,930 l 30,0 0,30 -30,0 z M 690,930 l 30,0 0,30 -30,0 z M 870,930 l 30,0 0,30 -30,0 z M 900,930 l 30,0 0,30 -30,0 z M 0,960 l 30,0 0,30 -30,0 z M 30,960 l 30,0 0,30 -30,0 z M 60,960 l 30,0 0,30 -30,0 z M 90,960 l 30,0 0,30 -30,0 z M 120,960 l 30,0 0,30 -30,0 z M 150,960 l 30,0 0,30 -30,0 z M 180,960 l 30,0 0,30 -30,0 z M 240,960 l 30,0 0,30 -30,0 z M 330,960 l 30,0 0,30 -30,0 z M 450,960 l 30,0 0,30 -30,0 z M 480,960 l 30,0 0,30 -30,0 z M 660,960 l 30,0 0,30 -30,0 z M 690,960 l 30,0 0,30 -30,0 z M 720,960 l 30,0 0,30 -30,0 z M 750,960 l 30,0 0,30 -30,0 z M 780,960 l 30,0 0,30 -30,0 z M 810,960 l 30,0 0,30 -30,0 z M 930,960 l 30,0 0,30 -30,0 z " />
	</g>
</svg>
